<?xml version="1.0" encoding="utf-8"?>
<!-- Generator: Adobe Illustrator 28.3.0, SVG Export Plug-In . SVG Version: 6.00 Build 0)  -->
<svg version="1.1" id="Template" xmlns="http://www.w3.org/2000/svg" xmlns:xlink="http://www.w3.org/1999/xlink" x="0px" y="0px"
	 viewBox="0 0 2333.4 566.9" style="enable-background:new 0 0 2333.4 566.9;" xml:space="preserve">
<style type="text/css">
	.st0{fill:#FFFFFF;}
	.st1{fill-rule:evenodd;clip-rule:evenodd;fill:#FFFFFF;}
</style>
<rect x="1488.3" y="141.7" class="st0" width="7.1" height="283.5"/>
<path class="st1" d="M1922.2,251.6c-0.3,24.5,22.4,38.2,39.5,46.4c17.6,8.4,23.5,13.7,23.4,21.2c-0.1,11.4-14,16.5-27,16.7
	c-22.7,0.3-35.8-6-46.3-10.8l-8.2,37.3c10.5,4.7,30,8.9,50.1,9c47.4,0,78.3-22.9,78.5-58.3c0.2-45-63.6-47.5-63.2-67.6
	c0.2-6.1,6.1-12.6,19.1-14.3c6.4-0.8,24.3-1.5,44.5,7.6l7.9-36.1c-10.9-3.9-24.8-7.6-42.2-7.6
	C1953.8,195.2,1922.5,218.4,1922.2,251.6L1922.2,251.6z M2116.7,198.3c-8.6,0-15.9,4.9-19.2,12.5l-67.6,157.9h47.3l9.4-25.5h57.8
	l5.5,25.5h41.7l-36.4-170.5L2116.7,198.3L2116.7,198.3z M2123.4,244.4l13.7,64h-37.4L2123.4,244.4L2123.4,244.4z M1864.8,198.3
	l-37.3,170.5h45.1l37.3-170.5H1864.8z M1798.1,198.3l-46.9,116l-19-98.6c-2.2-11-11-17.4-20.8-17.4h-76.7l-1.1,4.9
	c15.8,3.3,33.7,8.7,44.5,14.5c6.6,3.5,8.5,6.6,10.7,15l36,136h47.7l73.1-170.5H1798.1L1798.1,198.3z"/>
<g>
	<g>
		<g>
			<path class="st0" d="M571.7,333.2c15,0,26.3-8.6,31.1-23.1c0.5-1.8,2.4-2.7,4.2-2.2l19.3,6.5c1.8,0.5,2.7,2.6,2,4.3
				c-8.9,23.8-28.6,38.5-56.6,38.5c-38.3,0-66.1-30.4-66.1-73.6c0-43.3,27.8-73.6,66.1-73.6c27.9,0,47.7,14.7,56.6,38.5
				c0.7,1.8-0.3,3.6-2,4.3l-19.3,6.5c-1.8,0.5-3.6-0.4-4.2-2.2c-4.9-14.4-16.1-23.1-31.1-23.1c-22.7,0-38.7,19.6-38.7,49.5
				S549,333.2,571.7,333.2z"/>
			<path class="st0" d="M702.3,306.4l-21.5,4.5c-9.6,2-16.9,5.1-16.9,13.9c0,7.7,5.7,12,14.4,12c12.3,0,23.9-6.5,23.9-18.8
				L702.3,306.4L702.3,306.4z M638.5,326.1c0-20.4,15.8-29.2,36.5-33.1l27.4-5.5v-1.8c0-9.5-4.9-15.3-17-15.3c-9.9,0-15.4,4-18.2,12
				c-0.5,1.5-2.2,2.4-3.8,2l-18-3.8c-2-0.4-3.1-2.6-2.4-4.5c6.1-15.8,21.1-27.8,43.3-27.8c25.8,0,41.3,12,41.3,36.2v43.9
				c0,4.7,1.6,6.8,5.7,6.9c1.8,0.1,3.2,1.5,3.2,3.2V352c0,1.6-1.2,3.1-3,3.2c-15.7,1.5-24.7-2-28.6-10.1c-6.6,7.4-17.4,11.6-31,11.6
				C653.7,357,638.5,344.7,638.5,326.1z"/>
			<path class="st0" d="M759,322.7c1.3-1.2,3.5-1.1,4.7,0.3c7,8.4,18.1,13.6,28.9,13.6c9.7,0,18.5-3.4,18.5-11.9s-8.2-9.5-24.8-12.7
				c-16.7-3.4-35.5-7.7-35.5-30.1c0-19.6,17.1-33.5,41.7-33.5c17,0,32.3,6.8,40.8,16.5c1.1,1.4,1.1,3.2-0.1,4.5l-11.3,11.3
				c-1.3,1.4-3.5,1.4-4.7-0.1c-6.5-7.4-15.5-11.6-25.7-11.6c-9.3,0-15.3,4-15.3,10.4c0,7.2,7.3,8.5,20.2,11.2c18,3.8,40,7.7,40,31.6
				c0,21.5-19.8,35-44.1,35c-18,0-36.3-6.5-46.3-18.5c-1.1-1.4-0.9-3.2,0.4-4.5L759,322.7z"/>
			<path class="st0" d="M853,212.3h19.3c1.8,0,3.2,1.5,3.2,3.2v46c5.8-6.9,15.3-13,28.8-13c21.9,0,35.1,15,35.1,37.7v65.6
				c0,1.8-1.5,3.2-3.2,3.2h-19.3c-1.8,0-3.2-1.5-3.2-3.2v-58.2c0-12.3-5-21.2-17.5-21.2c-10.3,0-20.5,7.4-20.5,21.7v57.6
				c0,1.8-1.5,3.2-3.2,3.2H853c-1.8,0-3.2-1.5-3.2-3.2V215.5C849.8,213.8,851.2,212.3,853,212.3z"/>
			<path class="st0" d="M1033.2,299.9h42.7l-21.5-57.2L1033.2,299.9z M1071.3,214.4l51.3,136.4c0.8,2.2-0.8,4.5-3.1,4.5h-20.7
				c-1.3,0-2.6-0.8-3.1-2.2l-11.1-29.6h-60.1l-10.9,29.6c-0.5,1.4-1.8,2.2-3.1,2.2h-20.1c-2.3,0-3.9-2.3-3.1-4.5l51.3-136.4
				c0.5-1.2,1.8-2.2,3.1-2.2h26.6C1069.5,212.3,1070.7,213.1,1071.3,214.4z"/>
			<path class="st0" d="M1160.4,306c0,18.5,10.5,28.9,24.6,28.9c16.5,0,25.4-13.1,25.4-32c0-18.9-8.9-32-25.4-32
				c-14,0-24.6,10.3-24.6,29V306z M1160.9,344.3v43.2c0,1.8-1.5,3.2-3.2,3.2h-19.3c-1.8,0-3.2-1.5-3.2-3.2V253.9
				c0-1.8,1.5-3.2,3.2-3.2h19.3c1.8,0,3.2,1.5,3.2,3.2v7.7c6.3-7.7,16.3-13,29.7-13c29,0,45.8,24.7,45.8,54.3
				c0,29.7-16.7,54.4-45.8,54.4C1177.3,357.3,1167.4,352,1160.9,344.3z"/>
			<path class="st0" d="M1274.2,306c0,18.5,10.5,28.9,24.6,28.9c16.5,0,25.4-13.1,25.4-32c0-18.9-8.9-32-25.4-32
				c-14,0-24.6,10.3-24.6,29V306z M1274.7,344.3v43.2c0,1.8-1.5,3.2-3.2,3.2h-19.3c-1.8,0-3.2-1.5-3.2-3.2V253.9
				c0-1.8,1.5-3.2,3.2-3.2h19.3c1.8,0,3.2,1.5,3.2,3.2v7.7c6.3-7.7,16.3-13,29.7-13c29,0,45.8,24.7,45.8,54.3
				c0,29.7-16.7,54.4-45.8,54.4C1291.1,357.3,1281.2,352,1274.7,344.3z"/>
		</g>
	</g>
	<path class="st1" d="M417.3,182.7c-6.1-16.7-19.3-30-36.1-36c-15.1-4.9-29.2-4.9-57.8-4.9h-85.9c-28.5,0-42.7,0-57.9,4.7
		c-16.7,6.1-30,19.3-36.1,36c-4.9,15.4-4.9,29.6-4.9,58v85.8c0,28.6,0,42.6,4.7,58c6.1,16.7,19.3,30,36.1,36
		c15.4,4.9,29.6,4.9,57.9,4.9h85.9c28.5,0,42.7,0,57.9-4.9c16.7-6.1,30-19.3,36.1-36c4.9-15.4,4.9-29.6,4.9-58v-85.7
		C422.2,212.2,422.2,198.1,417.3,182.7z M343.2,238.8l-16.3,13.4c-1.5,1.2-3.5,0.9-4.6-0.5c-8.4-10.3-21.3-16.1-35.5-16.1
		c-15.8,0-25.7,6.9-25.7,16.6c-0.3,8.2,7.4,12.4,31.1,17.5c29.8,6.3,43.5,18.8,43.5,39.7c0,26.2-21.3,45.5-54.7,47.6l-3.2,15.5
		c-0.3,1.5-1.6,2.6-3.2,2.6h-25.7c-2.2,0-3.6-2-3.2-4l4.1-17.3c-16.5-4.7-29.8-13.9-37.5-25.1c-0.9-1.5-0.7-3.4,0.7-4.5l17.8-14
		c1.5-1.2,3.6-0.8,4.7,0.7c9.5,13.2,24,21.1,41.6,21.1c15.8,0,27.7-7.7,27.7-18.8c0-8.5-5.9-12.4-26.1-16.6
		c-34.3-7.4-47.9-20-47.9-40.9c0-24.3,20.4-42.5,51.2-44.9l3.4-16.1c0.3-1.5,1.6-2.6,3.2-2.6h25.3c2,0,3.6,1.9,3.2,3.9l-3.9,17.9
		c13.2,4,24,11.3,30.8,20.4C344.8,235.7,344.5,237.7,343.2,238.8z"/>
</g>
</svg>
